<svg aria-roledescription="flowchart-v2" role="graphics-document document" viewBox="0 0 873.330078125 1438" style="" class="flowchart" xmlns="http://www.w3.org/2000/svg" width="857" height="1422"  id="render_svg_4014"><style>#render_svg_4014{font-family:"trebuchet ms",verdana,arial,sans-serif;font-size:16px;fill:#333;}@keyframes edge-animation-frame{from{stroke-dashoffset:0;}}@keyframes dash{to{stroke-dashoffset:0;}}#render_svg_4014 .edge-animation-slow{stroke-dasharray:9,5!important;stroke-dashoffset:900;animation:dash 50s linear infinite;stroke-linecap:round;}#render_svg_4014 .edge-animation-fast{stroke-dasharray:9,5!important;stroke-dashoffset:900;animation:dash 20s linear infinite;stroke-linecap:round;}#render_svg_4014 .error-icon{fill:#552222;}#render_svg_4014 .error-text{fill:#552222;stroke:#552222;}#render_svg_4014 .edge-thickness-normal{stroke-width:1px;}#render_svg_4014 .edge-thickness-thick{stroke-width:3.5px;}#render_svg_4014 .edge-pattern-solid{stroke-dasharray:0;}#render_svg_4014 .edge-thickness-invisible{stroke-width:0;fill:none;}#render_svg_4014 .edge-pattern-dashed{stroke-dasharray:3;}#render_svg_4014 .edge-pattern-dotted{stroke-dasharray:2;}#render_svg_4014 .marker{fill:#333333;stroke:#333333;}#render_svg_4014 .marker.cross{stroke:#333333;}#render_svg_4014 svg{font-family:"trebuchet ms",verdana,arial,sans-serif;font-size:16px;}#render_svg_4014 p{margin:0;}#render_svg_4014 .label{font-family:"trebuchet ms",verdana,arial,sans-serif;color:#333;}#render_svg_4014 .cluster-label text{fill:#333;}#render_svg_4014 .cluster-label span{color:#333;}#render_svg_4014 .cluster-label span p{background-color:transparent;}#render_svg_4014 .label text,#render_svg_4014 span{fill:#333;color:#333;}#render_svg_4014 .node rect,#render_svg_4014 .node circle,#render_svg_4014 .node ellipse,#render_svg_4014 .node polygon,#render_svg_4014 .node path{fill:#ECECFF;stroke:#9370DB;stroke-width:1px;}#render_svg_4014 .rough-node .label text,#render_svg_4014 .node .label text,#render_svg_4014 .image-shape .label,#render_svg_4014 .icon-shape .label{text-anchor:middle;}#render_svg_4014 .node .katex path{fill:#000;stroke:#000;stroke-width:1px;}#render_svg_4014 .rough-node .label,#render_svg_4014 .node .label,#render_svg_4014 .image-shape .label,#render_svg_4014 .icon-shape .label{text-align:center;}#render_svg_4014 .node.clickable{cursor:pointer;}#render_svg_4014 .root .anchor path{fill:#333333!important;stroke-width:0;stroke:#333333;}#render_svg_4014 .arrowheadPath{fill:#333333;}#render_svg_4014 .edgePath .path{stroke:#333333;stroke-width:2.0px;}#render_svg_4014 .flowchart-link{stroke:#333333;fill:none;}#render_svg_4014 .edgeLabel{background-color:rgba(232,232,232, 0.8);text-align:center;}#render_svg_4014 .edgeLabel p{background-color:rgba(232,232,232, 0.8);}#render_svg_4014 .edgeLabel rect{opacity:0.5;background-color:rgba(232,232,232, 0.8);fill:rgba(232,232,232, 0.8);}#render_svg_4014 .labelBkg{background-color:rgba(232, 232, 232, 0.5);}#render_svg_4014 .cluster rect{fill:#ffffde;stroke:#aaaa33;stroke-width:1px;}#render_svg_4014 .cluster text{fill:#333;}#render_svg_4014 .cluster span{color:#333;}#render_svg_4014 div.mermaidTooltip{position:absolute;text-align:center;max-width:200px;padding:2px;font-family:"trebuchet ms",verdana,arial,sans-serif;font-size:12px;background:hsl(80, 100%, 96.2745098039%);border:1px solid #aaaa33;border-radius:2px;pointer-events:none;z-index:100;}#render_svg_4014 .flowchartTitleText{text-anchor:middle;font-size:18px;fill:#333;}#render_svg_4014 rect.text{fill:none;stroke-width:0;}#render_svg_4014 .icon-shape,#render_svg_4014 .image-shape{background-color:rgba(232,232,232, 0.8);text-align:center;}#render_svg_4014 .icon-shape p,#render_svg_4014 .image-shape p{background-color:rgba(232,232,232, 0.8);padding:2px;}#render_svg_4014 .icon-shape rect,#render_svg_4014 .image-shape rect{opacity:0.5;background-color:rgba(232,232,232, 0.8);fill:rgba(232,232,232, 0.8);}#render_svg_4014 :root{--mermaid-font-family:"trebuchet ms",verdana,arial,sans-serif;}</style><g><marker orient="auto" markerHeight="8" markerWidth="8" markerUnits="userSpaceOnUse" refY="5" refX="5" viewBox="0 0 10 10" class="marker flowchart-v2" id="render_svg_4014_flowchart-v2-pointEnd"><path style="stroke-width: 1; stroke-dasharray: 1, 0;" class="arrowMarkerPath" d="M 0 0 L 10 5 L 0 10 z"/></marker><marker orient="auto" markerHeight="8" markerWidth="8" markerUnits="userSpaceOnUse" refY="5" refX="4.5" viewBox="0 0 10 10" class="marker flowchart-v2" id="render_svg_4014_flowchart-v2-pointStart"><path style="stroke-width: 1; stroke-dasharray: 1, 0;" class="arrowMarkerPath" d="M 0 5 L 10 10 L 10 0 z"/></marker><marker orient="auto" markerHeight="11" markerWidth="11" markerUnits="userSpaceOnUse" refY="5" refX="11" viewBox="0 0 10 10" class="marker flowchart-v2" id="render_svg_4014_flowchart-v2-circleEnd"><circle style="stroke-width: 1; stroke-dasharray: 1, 0;" class="arrowMarkerPath" r="5" cy="5" cx="5"/></marker><marker orient="auto" markerHeight="11" markerWidth="11" markerUnits="userSpaceOnUse" refY="5" refX="-1" viewBox="0 0 10 10" class="marker flowchart-v2" id="render_svg_4014_flowchart-v2-circleStart"><circle style="stroke-width: 1; stroke-dasharray: 1, 0;" class="arrowMarkerPath" r="5" cy="5" cx="5"/></marker><marker orient="auto" markerHeight="11" markerWidth="11" markerUnits="userSpaceOnUse" refY="5.2" refX="12" viewBox="0 0 11 11" class="marker cross flowchart-v2" id="render_svg_4014_flowchart-v2-crossEnd"><path style="stroke-width: 2; stroke-dasharray: 1, 0;" class="arrowMarkerPath" d="M 1,1 l 9,9 M 10,1 l -9,9"/></marker><marker orient="auto" markerHeight="11" markerWidth="11" markerUnits="userSpaceOnUse" refY="5.2" refX="-1" viewBox="0 0 11 11" class="marker cross flowchart-v2" id="render_svg_4014_flowchart-v2-crossStart"><path style="stroke-width: 2; stroke-dasharray: 1, 0;" class="arrowMarkerPath" d="M 1,1 l 9,9 M 10,1 l -9,9"/></marker><g class="root"><g class="clusters"/><g class="edgePaths"><path marker-end="url(#render_svg_4014_flowchart-v2-pointEnd)" style="" class="edge-thickness-normal edge-pattern-solid edge-thickness-normal edge-pattern-solid flowchart-link" id="L_A_B_0" d="M449.131,86L443.76,90.167C438.389,94.333,427.646,102.667,422.346,110.417C417.045,118.167,417.185,125.334,417.256,128.917L417.326,132.501"/><path marker-end="url(#render_svg_4014_flowchart-v2-pointEnd)" style="" class="edge-thickness-normal edge-pattern-solid edge-thickness-normal edge-pattern-solid flowchart-link" id="L_B_C_0" d="M417.404,286.5L417.321,290.583C417.238,294.667,417.071,302.833,416.988,310.417C416.904,318,416.904,325,416.904,328.5L416.904,332"/><path marker-end="url(#render_svg_4014_flowchart-v2-pointEnd)" style="" class="edge-thickness-normal edge-pattern-solid edge-thickness-normal edge-pattern-solid flowchart-link" id="L_C_D_0" d="M286.904,405.597L263.25,411.164C239.596,416.731,192.287,427.866,168.633,436.933C144.979,446,144.979,453,144.979,456.5L144.979,460"/><path marker-end="url(#render_svg_4014_flowchart-v2-pointEnd)" style="" class="edge-thickness-normal edge-pattern-solid edge-thickness-normal edge-pattern-solid flowchart-link" id="L_D_E_0" d="M104.49,518L98.241,522.167C91.993,526.333,79.497,534.667,73.319,542.417C67.141,550.167,67.281,557.334,67.351,560.917L67.422,564.501"/><path marker-end="url(#render_svg_4014_flowchart-v2-pointEnd)" style="" class="edge-thickness-normal edge-pattern-solid edge-thickness-normal edge-pattern-solid flowchart-link" id="L_E_F_0" d="M67.5,686.5L67.417,692.583C67.333,698.667,67.167,710.833,74.985,724.618C82.804,738.403,98.607,753.805,106.509,761.507L114.411,769.208"/><path marker-end="url(#render_svg_4014_flowchart-v2-pointEnd)" style="" class="edge-thickness-normal edge-pattern-solid edge-thickness-normal edge-pattern-solid flowchart-link" id="L_F_D_0" d="M190.248,772L203.941,763.833C217.634,755.667,245.019,739.333,258.712,715.167C272.404,691,272.404,659,272.404,629C272.404,599,272.404,571,262.811,553.085C253.218,535.17,234.032,527.341,224.439,523.426L214.845,519.511"/><path marker-end="url(#render_svg_4014_flowchart-v2-pointEnd)" style="" class="edge-thickness-normal edge-pattern-solid edge-thickness-normal edge-pattern-solid flowchart-link" id="L_E_G_0" d="M114.72,639.28L170.905,653.233C227.09,667.186,339.46,695.093,395.645,714.547C451.83,734,451.83,745,451.83,750.5L451.83,756"/><path marker-end="url(#render_svg_4014_flowchart-v2-pointEnd)" style="" class="edge-thickness-normal edge-pattern-solid edge-thickness-normal edge-pattern-solid flowchart-link" id="L_G_H_0" d="M451.83,838L451.83,842.167C451.83,846.333,451.83,854.667,451.83,862.333C451.83,870,451.83,877,451.83,880.5L451.83,884"/><path marker-end="url(#render_svg_4014_flowchart-v2-pointEnd)" style="" class="edge-thickness-normal edge-pattern-solid edge-thickness-normal edge-pattern-solid flowchart-link" id="L_H_I_0" d="M451.83,966L451.83,970.167C451.83,974.333,451.83,982.667,451.83,990.333C451.83,998,451.83,1005,451.83,1008.5L451.83,1012"/><path marker-end="url(#render_svg_4014_flowchart-v2-pointEnd)" style="" class="edge-thickness-normal edge-pattern-solid edge-thickness-normal edge-pattern-solid flowchart-link" id="L_I_J_0" d="M451.83,1070L451.83,1074.167C451.83,1078.333,451.83,1086.667,460.715,1094.732C469.6,1102.798,487.369,1110.595,496.254,1114.494L505.138,1118.393"/><path marker-end="url(#render_svg_4014_flowchart-v2-pointEnd)" style="" class="edge-thickness-normal edge-pattern-solid edge-thickness-normal edge-pattern-solid flowchart-link" id="L_J_C_0" d="M631.859,1120L641.354,1115.833C650.849,1111.667,669.84,1103.333,679.335,1090.5C688.83,1077.667,688.83,1060.333,688.83,1043C688.83,1025.667,688.83,1008.333,688.83,989C688.83,969.667,688.83,948.333,688.83,927C688.83,905.667,688.83,884.333,688.83,863C688.83,841.667,688.83,820.333,688.83,797C688.83,773.667,688.83,748.333,688.83,719.667C688.83,691,688.83,659,688.83,629C688.83,599,688.83,571,688.83,548.333C688.83,525.667,688.83,508.333,688.83,491C688.83,473.667,688.83,456.333,665.825,442.252C642.819,428.171,596.809,417.342,573.803,411.927L550.798,406.513"/><path marker-end="url(#render_svg_4014_flowchart-v2-pointEnd)" style="" class="edge-thickness-normal edge-pattern-solid edge-thickness-normal edge-pattern-solid flowchart-link" id="L_J_K_0" d="M570.33,1174L570.33,1178.167C570.33,1182.333,570.33,1190.667,570.33,1198.333C570.33,1206,570.33,1213,570.33,1216.5L570.33,1220"/><path marker-end="url(#render_svg_4014_flowchart-v2-pointEnd)" style="" class="edge-thickness-normal edge-pattern-solid edge-thickness-normal edge-pattern-solid flowchart-link" id="L_K_L_0" d="M570.33,1278L570.33,1284.167C570.33,1290.333,570.33,1302.667,576.534,1314.548C582.738,1326.43,595.145,1337.86,601.349,1343.575L607.553,1349.29"/><path marker-end="url(#render_svg_4014_flowchart-v2-pointEnd)" style="" class="edge-thickness-normal edge-pattern-dotted edge-thickness-normal edge-pattern-solid flowchart-link" id="L_L_A_0" d="M745.455,1352L760.101,1345.833C774.747,1339.667,804.038,1327.333,818.684,1310.5C833.33,1293.667,833.33,1272.333,833.33,1253C833.33,1233.667,833.33,1216.333,833.33,1199C833.33,1181.667,833.33,1164.333,833.33,1147C833.33,1129.667,833.33,1112.333,833.33,1095C833.33,1077.667,833.33,1060.333,833.33,1043C833.33,1025.667,833.33,1008.333,833.33,989C833.33,969.667,833.33,948.333,833.33,927C833.33,905.667,833.33,884.333,833.33,863C833.33,841.667,833.33,820.333,833.33,797C833.33,773.667,833.33,748.333,833.33,719.667C833.33,691,833.33,659,833.33,629C833.33,599,833.33,571,833.33,548.333C833.33,525.667,833.33,508.333,833.33,491C833.33,473.667,833.33,456.333,833.33,437C833.33,417.667,833.33,396.333,833.33,375C833.33,353.667,833.33,332.333,833.33,305C833.33,277.667,833.33,244.333,833.33,211C833.33,177.667,833.33,144.333,799.997,121.278C766.664,98.223,699.999,85.446,666.666,79.057L633.333,72.669"/></g><g class="edgeLabels"><g class="edgeLabel"><g transform="translate(0, 0)" class="label"><foreignObject height="0" width="0"><div style="display: table-cell; white-space: nowrap; line-height: 1.5; max-width: 200px; text-align: center;" class="labelBkg" xmlns="http://www.w3.org/1999/xhtml"><span class="edgeLabel"></span></div></foreignObject></g></g><g class="edgeLabel"><g transform="translate(0, 0)" class="label"><foreignObject height="0" width="0"><div style="display: table-cell; white-space: nowrap; line-height: 1.5; max-width: 200px; text-align: center;" class="labelBkg" xmlns="http://www.w3.org/1999/xhtml"><span class="edgeLabel"></span></div></foreignObject></g></g><g class="edgeLabel"><g transform="translate(0, 0)" class="label"><foreignObject height="0" width="0"><div style="display: table-cell; white-space: nowrap; line-height: 1.5; max-width: 200px; text-align: center;" class="labelBkg" xmlns="http://www.w3.org/1999/xhtml"><span class="edgeLabel"></span></div></foreignObject></g></g><g class="edgeLabel"><g transform="translate(0, 0)" class="label"><foreignObject height="0" width="0"><div style="display: table-cell; white-space: nowrap; line-height: 1.5; max-width: 200px; text-align: center;" class="labelBkg" xmlns="http://www.w3.org/1999/xhtml"><span class="edgeLabel"></span></div></foreignObject></g></g><g transform="translate(67, 723)" class="edgeLabel"><g transform="translate(-45.10546875, -12)" class="label"><foreignObject height="24" width="90.2109375"><div style="display: table-cell; white-space: nowrap; line-height: 1.5; max-width: 200px; text-align: center;" class="labelBkg" xmlns="http://www.w3.org/1999/xhtml"><span class="edgeLabel"><p>N的效力依赖</p></span></div></foreignObject></g></g><g transform="translate(272.404296875, 627)" class="edgeLabel"><g transform="translate(-61.95703125, -12)" class="label"><foreignObject height="24" width="123.9140625"><div style="display: table-cell; white-space: nowrap; line-height: 1.5; max-width: 200px; text-align: center;" class="labelBkg" xmlns="http://www.w3.org/1999/xhtml"><span class="edgeLabel"><p>R0合法性由N赋予</p></span></div></foreignObject></g></g><g transform="translate(451.830078125, 723)" class="edgeLabel"><g transform="translate(-32, -12)" class="label"><foreignObject height="24" width="64"><div style="display: table-cell; white-space: nowrap; line-height: 1.5; max-width: 200px; text-align: center;" class="labelBkg" xmlns="http://www.w3.org/1999/xhtml"><span class="edgeLabel"><p>突破循环</p></span></div></foreignObject></g></g><g class="edgeLabel"><g transform="translate(0, 0)" class="label"><foreignObject height="0" width="0"><div style="display: table-cell; white-space: nowrap; line-height: 1.5; max-width: 200px; text-align: center;" class="labelBkg" xmlns="http://www.w3.org/1999/xhtml"><span class="edgeLabel"></span></div></foreignObject></g></g><g class="edgeLabel"><g transform="translate(0, 0)" class="label"><foreignObject height="0" width="0"><div style="display: table-cell; white-space: nowrap; line-height: 1.5; max-width: 200px; text-align: center;" class="labelBkg" xmlns="http://www.w3.org/1999/xhtml"><span class="edgeLabel"></span></div></foreignObject></g></g><g class="edgeLabel"><g transform="translate(0, 0)" class="label"><foreignObject height="0" width="0"><div style="display: table-cell; white-space: nowrap; line-height: 1.5; max-width: 200px; text-align: center;" class="labelBkg" xmlns="http://www.w3.org/1999/xhtml"><span class="edgeLabel"></span></div></foreignObject></g></g><g transform="translate(688.830078125, 799)" class="edgeLabel"><g transform="translate(-72, -12)" class="label"><foreignObject height="24" width="144"><div style="display: table-cell; white-space: nowrap; line-height: 1.5; max-width: 200px; text-align: center;" class="labelBkg" xmlns="http://www.w3.org/1999/xhtml"><span class="edgeLabel"><p>获得部分规范性力量</p></span></div></foreignObject></g></g><g class="edgeLabel"><g transform="translate(0, 0)" class="label"><foreignObject height="0" width="0"><div style="display: table-cell; white-space: nowrap; line-height: 1.5; max-width: 200px; text-align: center;" class="labelBkg" xmlns="http://www.w3.org/1999/xhtml"><span class="edgeLabel"></span></div></foreignObject></g></g><g transform="translate(570.330078125, 1315)" class="edgeLabel"><g transform="translate(-32, -12)" class="label"><foreignObject height="24" width="64"><div style="display: table-cell; white-space: nowrap; line-height: 1.5; max-width: 200px; text-align: center;" class="labelBkg" xmlns="http://www.w3.org/1999/xhtml"><span class="edgeLabel"><p>社会实效</p></span></div></foreignObject></g></g><g transform="translate(833.330078125, 799)" class="edgeLabel"><g transform="translate(-32, -12)" class="label"><foreignObject height="24" width="64"><div style="display: table-cell; white-space: nowrap; line-height: 1.5; max-width: 200px; text-align: center;" class="labelBkg" xmlns="http://www.w3.org/1999/xhtml"><span class="edgeLabel"><p>社会反馈</p></span></div></foreignObject></g></g></g><g class="nodes"><g transform="translate(499.404296875, 47)" id="flowchart-A-0" class="node default"><rect height="78" width="260" y="-39" x="-130" style="" class="basic label-container"/><g transform="translate(-100, -24)" style="" class="label"><rect/><foreignObject height="48" width="200"><div style="display: table; white-space: break-spaces; line-height: 1.5; max-width: 200px; text-align: center; width: 200px;" xmlns="http://www.w3.org/1999/xhtml"><span class="nodeLabel"><p>外部事实输入a1：临街半私人场所播放色情片</p></span></div></foreignObject></g></g><g transform="translate(416.904296875, 211)" id="flowchart-B-1" class="node default"><polygon transform="translate(-75,75)" class="label-container" points="75,0 150,-75 75,-150 0,-75"/><g transform="translate(-48, -12)" style="" class="label"><rect/><foreignObject height="24" width="96"><div style="display: table-cell; white-space: nowrap; line-height: 1.5; max-width: 200px; text-align: center;" xmlns="http://www.w3.org/1999/xhtml"><span class="nodeLabel"><p>司法裁判启动</p></span></div></foreignObject></g></g><g transform="translate(416.904296875, 375)" id="flowchart-C-3" class="node default"><rect height="78" width="260" y="-39" x="-130" style="" class="basic label-container"/><g transform="translate(-100, -24)" style="" class="label"><rect/><foreignObject height="48" width="200"><div style="display: table; white-space: break-spaces; line-height: 1.5; max-width: 200px; text-align: center; width: 200px;" xmlns="http://www.w3.org/1999/xhtml"><span class="nodeLabel"><p>接触低级规范R：《刑法》公共场所定义</p></span></div></foreignObject></g></g><g transform="translate(144.978515625, 491)" id="flowchart-D-5" class="node default"><rect height="54" width="214.2109375" y="-27" x="-107.10546875" style="" class="basic label-container"/><g transform="translate(-77.10546875, -12)" style="" class="label"><rect/><foreignObject height="24" width="154.2109375"><div style="display: table-cell; white-space: nowrap; line-height: 1.5; max-width: 200px; text-align: center;" xmlns="http://www.w3.org/1999/xhtml"><span class="nodeLabel"><p>效力追溯至基础规范N</p></span></div></foreignObject></g></g><g transform="translate(67, 627)" id="flowchart-E-7" class="node default"><polygon transform="translate(-59,59)" class="label-container" points="59,0 118,-59 59,-118 0,-59"/><g transform="translate(-32, -12)" style="" class="label"><rect/><foreignObject height="24" width="64"><div style="display: table-cell; white-space: nowrap; line-height: 1.5; max-width: 200px; text-align: center;" xmlns="http://www.w3.org/1999/xhtml"><span class="nodeLabel"><p>递归闭合</p></span></div></foreignObject></g></g><g transform="translate(144.978515625, 799)" id="flowchart-F-9" class="node default"><rect height="54" width="253.703125" y="-27" x="-126.8515625" style="" class="basic label-container"/><g transform="translate(-96.8515625, -12)" style="" class="label"><rect/><foreignObject height="24" width="193.703125"><div style="display: table-cell; white-space: nowrap; line-height: 1.5; max-width: 200px; text-align: center;" xmlns="http://www.w3.org/1999/xhtml"><span class="nodeLabel"><p>底层实践：法官任命规则R0</p></span></div></foreignObject></g></g><g transform="translate(451.830078125, 799)" id="flowchart-G-13" class="node default"><rect height="78" width="260" y="-39" x="-130" style="" class="basic label-container"/><g transform="translate(-100, -24)" style="" class="label"><rect/><foreignObject height="48" width="200"><div style="display: table; white-space: break-spaces; line-height: 1.5; max-width: 200px; text-align: center; width: 200px;" xmlns="http://www.w3.org/1999/xhtml"><span class="nodeLabel"><p>规范重塑：法官解释扩展R为R1</p></span></div></foreignObject></g></g><g transform="translate(451.830078125, 927)" id="flowchart-H-15" class="node default"><rect height="78" width="260" y="-39" x="-130" style="" class="basic label-container"/><g transform="translate(-100, -24)" style="" class="label"><rect/><foreignObject height="48" width="200"><div style="display: table; white-space: break-spaces; line-height: 1.5; max-width: 200px; text-align: center; width: 200px;" xmlns="http://www.w3.org/1999/xhtml"><span class="nodeLabel"><p>生成新规范R1：“临街场所属公共场所”</p></span></div></foreignObject></g></g><g transform="translate(451.830078125, 1043)" id="flowchart-I-17" class="node default"><rect height="54" width="253.703125" y="-27" x="-126.8515625" style="" class="basic label-container"/><g transform="translate(-96.8515625, -12)" style="" class="label"><rect/><foreignObject height="24" width="193.703125"><div style="display: table-cell; white-space: nowrap; line-height: 1.5; max-width: 200px; text-align: center;" xmlns="http://www.w3.org/1999/xhtml"><span class="nodeLabel"><p>系统更新：R1成为内部事实</p></span></div></foreignObject></g></g><g transform="translate(570.330078125, 1147)" id="flowchart-J-19" class="node default"><rect height="54" width="187.03125" y="-27" x="-93.515625" style="" class="basic label-container"/><g transform="translate(-63.515625, -12)" style="" class="label"><rect/><foreignObject height="24" width="127.03125"><div style="display: table-cell; white-space: nowrap; line-height: 1.5; max-width: 200px; text-align: center;" xmlns="http://www.w3.org/1999/xhtml"><span class="nodeLabel"><p>反馈至基础规范 N</p></span></div></foreignObject></g></g><g transform="translate(570.330078125, 1251)" id="flowchart-K-23" class="node default"><rect height="54" width="156" y="-27" x="-78" style="" class="basic label-container"/><g transform="translate(-48, -12)" style="" class="label"><rect/><foreignObject height="24" width="96"><div style="display: table-cell; white-space: nowrap; line-height: 1.5; max-width: 200px; text-align: center;" xmlns="http://www.w3.org/1999/xhtml"><span class="nodeLabel"><p>法律系统边界</p></span></div></foreignObject></g></g><g transform="translate(652.830078125, 1391)" id="flowchart-L-25" class="node default"><rect height="78" width="260" y="-39" x="-130" style="" class="basic label-container"/><g transform="translate(-100, -24)" style="" class="label"><rect/><foreignObject height="48" width="200"><div style="display: table; white-space: break-spaces; line-height: 1.5; max-width: 200px; text-align: center; width: 200px;" xmlns="http://www.w3.org/1999/xhtml"><span class="nodeLabel"><p>外部社会：公民服从/观念更新</p></span></div></foreignObject></g></g></g></g></g></svg>