<svg font-size="64" text-anchor="middle" xmlns="http://www.w3.org/2000/svg" width="576" height="360">
  <g fill="none" stroke="currentColor">
    <path stroke-width="2" stroke-dasharray="1 5" d="M288 0V360ZM0 90H576ZM0 180H576ZM0 270H576ZM0"/>
    <path stroke-width="3" d="M576 360H0V0h576z"/>
  </g>
  <text font-family="Noto Sans Cuneiform" lang="sux" x="144" y="65">ЁТИмЁТКмЁТКП</text>
  <g font-family="Noto Sans Egyptian Hieroglyphs" font-size="62" font-weight="700" lang="egy" letter-spacing="4">
    <text x="432" y="71">ЁУПЮЁУП▓<tspan dy="-18">ЁУН╝</tspan><tspan dy="18">ЁУК╣ЁУМГЁУПк</tspan></text>
    <text x="443" y="76">ЁУПе</text>
  </g>
  <text font-family="IPAPGothic, sans-serif" lang="und-Hani" x="144" y="160">хдйхЬ░чОДщ╗Д</text>
  <path lang="myn" d="M465.18 102c-2.4 0-5 1.6-6.7 2.6-6.3 3.5-8 4.5-8.7 5.6-1.5 2.1-.6 5.3.4 7.5a2 2 0 0 0-1.3.2c-.7-1-2.1-1.3-2.9-.4-1-1-2.2-1-3 .4-1.6-.5-2.5.6-2.6 2.2-1.2-.1-2 .8-2.1 2v1c-.4.7-.9 1.1-1 2 0 .6.4 1.2.3 1.6-.2.6-.8 1-.8 2 0 .6.4 1.2.4 1.7-.1.7-.8 1.4-.7 2.4 0 .8.5 1.3.6 1.9-.3.5-1.3 3.3.3 4.4-.5.8-.7 1.8-.3 2.7l.5.9-.2 1c-.1.9.3 1.8 1 2.3-.5 1.5.2 3.1 1.9 3.3.1 1.6 1.2 2.6 2.8 2l.4.6c-4 1-7.4 5.5-5.3 9.4 1.5 2.9 4.7 4.3 7.7 4.8 2.3.4 4.7.3 7-.3 1-.3 2.2-1.2 3-1.2.7 0 1.7.7 2.4 1a22.5 22.5 0 0 0 11.9.4c1-.3 2.4-1.3 3.3-1.3.8 0 2.1.9 3 1.2 2.5.6 5 .6 7.4.1 2.5-.5 5-1.7 6.5-3.8 2-3 1-6.2-1.2-8.3 3.2-1.7 2.7-7.1-.2-8.9 2.7-1.5 4.3-5 2.3-8-.8-1-1.7-1.5-2.8-2a5.5 5.5 0 0 0-1-9.4c2-1 2.8-3.4 2.6-5.4-.1-.7-.7-1.5-.6-2 0-.7 1.1-1.5 1.5-2.4.8-2.3.2-5.1-1.1-7a10 10 0 0 0-14.6-1.5c.1-1.3-1-2.7-2.9-2.5-3.5.6-2.4 4.9 1 4.4l.4-.2-.5 1a3 3 0 0 0-3.2-.3c-.4-2.3-.3-5.7-2.6-7.2a4 4 0 0 0-2.3-.6zm-86.5 0c-2 0-4 1.7-3.7 3.7-2.5-1.1-5.8-.3-5.9 3 0 .7.3 1.3.5 1.9-3.5-.5-4.8 5-2 7a4 4 0 0 0-2 1.5c-1 1.7-.5 4.4 1.3 5.4-3.2 2-3.2 6 0 8.3-3.4 1.6-3 6.3-.1 8.3-2.5 1.5-1.9 4.7.2 6.3-2.6 1.5-2.4 5.7.6 6.6a4 4 0 0 0-1.3 2.7c0 2.2 2 4 4.2 3.8-.3 1.3-.3 2.6.8 3.7 1.6 1.6 4.6 1.5 5.8-.4v.3c.2.5.5 1.1 1.2 1.7 2.6 1.7 5.2.4 6.1-2.1 1.4 1.6 4.1 1.5 5.5.1 1-1 1.2-2.2 1-3.4 8.1 4.5 18.6 2.9 27.4 2.7 4.7-.7 9-3 12-6.6 4.7-5.7 4.4-12.3 4.4-19 0-6.3.3-12.4-3.7-17.8-.7-1-1.5-2-2.5-2.7 4.3-3.3 2.7-9.9-1.3-12.6-6-4.3-15-2.8-19 3.4-3.3-7-14-7-19.5-2.9-1.1-2.5-5.1-2.5-6.4-.1-.7-1.5-1.7-2.9-3.6-2.9zm168 0c-3.7-.2-7.3.4-10.9.9-3 .4-6.2.8-9 2-2.5 1-3 3-3.8 5.1-2.1 5-2.3 10.4-4.2 15.3-1.1 2.7-3.4 4-5.5 5.9v-17.4c0-2.5.6-6-.3-8.5a5.4 5.4 0 0 0-8.6-2c-1.2 1.2-1.4 2.6-1.5 4-1.2-2.1-4.1-3.3-6.3-1.8-2 1.4-2.8 4-3 6.2 0 2.4.7 5.4 2.7 7 2.2 1.7 5.3.7 6.6-1.6v34c-1.2-2-4-3.3-6.2-1.9-2 1.4-3 4-3 6.3-.1 2.4.6 5.4 2.6 7 2.2 1.7 5.4.7 6.6-1.7 0 1.3.1 2.7 1 3.9 2.4 2.9 7.2 2.6 8.9-.9.8-1.8.5-4.2.5-6V153c.5.8 1.2 1.3 1.7 1.8l4.6 4.2c2.5 2 5.2 4.2 8.3 5.4 2.5.9 5 .8 7.5 1 6.7.4 14 0 20.2-2.5 4.1-1.7 6.1-5.5 7.3-9.5a87.3 87.3 0 0 0 2.7-28.3c-.4-4.1-1.8-8.2-3.2-12-1.3-3-2.7-6.3-5.3-8.5-2.7-2.2-5.7-2.5-8.9-2.7h-1.4zm-209 0c-4.3.1-6 2.3-6.5 3.3a5 5 0 0 0-2.8-2.5c-2.3-1-5.6-1.1-7.9-.2-1.4.6-3 1.6-3.3 3.3-.7-3.2-6.7-5.3-11.8-2.8-3.4 1.5-3 5.1.2 6.8-.8 0-1.9 0-2.9.5a4.5 4.5 0 0 0-2.1 6.2c.5 1 1.1 1.4 1.7 1.7l1.2.5c-.3.8-.4 1-1 .8h-.1c-2 .6-2.6 1.8-2.3 3.6 0 .3-1.1.2-1.6 1.8-.4 1.5.6 2.3.7 2.5-1.2 1.7-1.4 3.4 0 5 0 .2-.8 1-.5 2.6.3 1.4 1.6 1.8 1.7 2 0 0-.7 2 .7 3 .8.6 1.6.2 2.1.4.2.1.4 1.6 1.8 2 1.2.2 2-.4 2-.3.5.1.8 1 1.6 1.2 1.5.4 2.4-.7 2.6-.7l.6.4c.3 0 .4.1.5.2-.9.2-3.3.6-6.6 2.1-1 .5-2.3 1-2.8 2.3a4 4 0 0 0 0 2.7c.3.4.7.8.7 1 0 .2-1 .6-1.1 2-.2 1.2.7 2.7.7 2.8 0 .3-1.2.6-1.2 2.4 0 2 1.1 2.7 1.4 3h.1c.2.9-.5 2 .9 2.8 1.5.7 3.9.1 5.3-.4 3-1 6.1-2.3 9.3-2.8 9.7-1 19.5.2 28 4.9h.1c3.3 1 7 .4 10-1.1s5.5-4.5 5.1-8c0-.7-.4-1.4-.4-2.1-.1-.9 0-1.8-.4-2.8a45.3 45.3 0 0 1-.4-32.3c.2-.7-.1-1.1-.4-1.3l-.2-.3c0-.2.7-.5 1-.9.7-.7 1.1-1.7 1.1-2.7 0-4.3-4-4.6-5.6-4.7 2-1.1 3.8-3.4 1.8-5.6-2.2-2.4-7-3-10.3-1.6-1.4.6-3 1.7-3.1 3.3 0-.4-.2-.8-.5-1.3-1-1.8-4.5-2.8-7-2.7zm-27.3 1.2c6.6 0 7.3 5.7 1.2 6.3-9.2 1-9.5-6.4-1.2-6.3zm13.4 0c2.9 0 5.9 1.1 6.3 2.7.6 2.1-2.5 3.4-4.3 3.6-3.6.4-6-.7-7-2-.7-1.2-.2-2.7 2.3-3.7a8 8 0 0 1 2.7-.5zm29.3 0c3.4.2 4.9 2.1 5 2.7.6 2.1-2.5 3.4-4.3 3.6-3.6.4-6-.7-6.8-2-.9-1.2-.4-2.7 2.2-3.7 1.5-.5 2.8-.6 4-.5zm155.2 0a4 4 0 0 1 3.5 2.8c.2.9.1 1.9.1 2.9v50c0 1.2.2 2.5-.1 3.6a3.8 3.8 0 0 1-3.2 2.8 4 4 0 0 1-4.2-2.8c-.7-2.3-.2-5.4-.2-8v-44.7c0-1.3-.1-2.6.2-3.8a3.9 3.9 0 0 1 4-2.7zm-170.6 0c2.7 0 5.4.8 6.2 2.6.9 2.1-2.6 3.5-4.3 3.7a9 9 0 0 1-6.1-1.2c-2.4-1.6-.7-3.8 1.6-4.5.8-.3 1.7-.5 2.6-.5zm41.3.1c2.3.2 2.8 4.2 0 4.6-3.4.4-3.2-4.8 0-4.6zm86.4 0-2 1.4c-2.5 1.7-5.3 2.8-7.8 4.5-1.2.8-3.3 2.3-3 4.1.4 2.5 3 4 4.1 6.1a6 6 0 0 1-3 0c-2.6-1.3-4-5.4-3-8 .5-1.3 2-1.9 3.2-2.6 2.4-1.6 5-2.9 7.5-4.2a9.2 9.2 0 0 1 4-1.3zm84.8.1 1.4.2c3.3.6 5.9 2.8 7.5 5.7 2.9 5.4 5 11.8 5.4 18 .2 2.6 0 5.2 0 7.9-3.4.2-6.8 1-10.1 1.3-9.5 1-20.4 2.5-29.9-1.5-1-.5-1.5-1.6-2.8-2.2h-.3l-.4 1h.3c.6.3 2 1 2 1.5 0 .7-1.2 1.1-2 1.4v-1.3h-.6v.2l-.6 1.3c-.4.1-1-.2-1.4-.4-1.3-.6-3-1.2-4-2.2-.4-.5-.5-1.3-.7-2a19 19 0 0 0 5-4.4c2.1-3.2 2.5-7.8 3.4-11.4.5-2.3 1.3-4.4 2.1-6.6.4-1.1.7-2.3 1.5-3 .8-.8 2-1.1 3.2-1.4 1.8-.4 3.5-.8 5.3-1-2.3 1.4-4.6 4-2.8 6.7.3.5.8.8 1.2 1.2.7.5 1.5.9 2.3 1.2 4.3 1.6 10 .8 14-1.5 2.4-1.4 5-4.3 2.8-7.2a5.2 5.2 0 0 0-1.8-1.5zm-83.5.3c.6 0 1 1 1.2 1.7.6 2 1 4.4.8 6.5-.2 1.4-1.2 2.1-2.5 3-1.9 1.1-3.7 2.3-5.7 3.2-.8.4-2 1.2-2.7 1-.3 0-.8-1-1.2-1.5-1-1.4-3.6-3.4-3-5.2.5-1 1.6-1.8 2.6-2.5 2.3-1.5 5-2.6 7.3-4.2l2.4-1.6zm-48 .3c5.1 0 10.2 2.5 10.4 7 0 1.3-.4 2.7-1.2 3.8-.3.3-.6.8-1 .8-2.8-1.2-6-2.6-8.3-4.3-.3-.7 0-1 .7-.6 1.1.6 2.4 1.8 3.8 2.1 1.6.4 1.4-1.7 1-2.5a5.8 5.8 0 0 0-5.4-3.4h1.1c2.5 0 5.7 1.3 6.2 4a7 7 0 0 1-.3 2v.3l1.3.4.1-.3c.2-.8.5-1.7.3-2.6-.5-3.6-4.1-5.2-7.5-5.3-3 0-6.2 1.4-6.7 2.8 0 .4 0 .9.4 1.2h.5l.7-.6-.4.8c-.2.9.4 1.7.7 2.4h-6.3a11 11 0 0 1 2-4.7c1.9-2.2 4.9-3.2 7.9-3.3zm-21.3 0a11 11 0 0 1 8.4 3.7c.8 1 1 2 1.3 3.3l.4.9h-6.2c.4-.6.8-1.4.8-2.2a2 2 0 0 0-.3-1c.2.2.8 1 1.4.4 1-1-1.3-2.5-3.2-3.2a9.8 9.8 0 0 0-8.6 1.1c-2.5 1.8-3 5-2 6 .4.4.8.4 1.2.3h.2v-.3c-.2-1-.4-1.6-.2-2.5.8-2.4 3.5-3.6 6.2-3.6a5.7 5.7 0 0 0-4.2 2.8c-.3.5-1 2-.3 2.7.2.2.5.3.8.3 1.9.2 3.2-2.5 4.8-2.3.3 0 .3.3.1.7a3 3 0 0 1-.7 1.1c-.6.5-3 .5-6 2.4-.5.3-1.5 1.2-1.8 1.1-.8-.1-1.6-1.9-1.8-2.7-1.5-4.3 3-9 9.7-9zm151.6.3.6.3c1.2.6 2.2 1.8 1.9 3.2-.3 1.1-1.2 2-2.2 2.7a16.3 16.3 0 0 1-7.4 2.4c-2.5.3-5.2 0-7.4-1-1.4-.8-2.4-2-2-3.5.3-1 1.3-2 2.2-2.6.1 0 .2 0 .3-.2-1 .7-1.8 1.7-2 3 0 1.4 1.2 2.5 2.3 3 2.3 1.1 5 1.1 7.4.8 2.1-.3 4.5-1 6.3-2.3.8-.5 1.7-1.4 1.9-2.5.2-1.5-.7-2.6-1.9-3.3zm-163.8.1c.6 0 2.6.5 2.4 1.5l-1.2 2a6.2 6.2 0 0 1-.8 1c0 .1 0 0 0 0-2.8.6-3.3-4-.4-4.5zm156.6.3c1.4.1 2.3 2.3 1.8 3.5-.8 1.7-3 2.7-4.9 2.9-1.8.1-5.4-1.4-3.8-3.6 1.5-1.8 4.4-2.6 6.7-2.8zm2.3 0c1 .5 1.9 2 1.6 3.2-.3.9-1 1.5-1.8 2 1-1 1.5-2.4 1-4zm2 0c1.7.3 4.2 1.3 3.2 3.1-.7 1.3-2.2 2-3.7 2.5 1.1-1 1.8-2.5 1.3-4.1-.2-.6-.5-1-.8-1.4zm-47 1.5c1.3.1 2.3 1.3 2.9 2.5 1 2.2 1 5.1-.2 7.3-.5 1-1.4 2-2.6 2.2-1.6.2-2.9-1.2-3.5-2.7-1.1-2.8-1-8.8 2.9-9.3zm-26.6 0c1.2-.2 2.4 1.3.6 1.6-1.3.3-2.3-1.3-.6-1.6zm9 0c3-.1 6 1.1 7.5 3.7a6.2 6.2 0 0 1 .2 6.2c-.5.9-1.1 1.6-2 1.5l.4-1.2c.6-.3.7-1.1.8-1.7a6 6 0 0 0-1.6-4.5 6.5 6.5 0 0 0-10 .8 6 6 0 0 0-.9 4.3l-1.7-.3a7 7 0 0 1 .4-4.5c1.2-2.7 4-4.2 7-4.3zm-108.3.3c2.4.1 3 4.1.1 4.6-3.5.5-3.3-4.8-.1-4.6zm-28 .4.1.4c.4 1.4 1.8 2.2 2.6 2.6a91 91 0 0 1-5 0c1.1-.7 2.2-1.7 2.4-3zm-28 0c.2 1 .8 1.8 1.5 2.3l1.1.7h-5a6 6 0 0 0 1.7-1.3c.5-.6.7-1.1.8-1.6zm14 .5c.2.3.4.9 1 1.6a5.63 5.63 0 0 0 1.4 1h-5.1c.5-.3 1.8-.8 2.7-2.6zm50.7 0 .6 1.4-1.6-.3 1-1zm83.5.7h-.5c-1.7.6-1 3 .8 2.3 1.3-.5 1-2.3-.3-2.3zm-67.4.2c2.4.1 2.8 1 2.6 1.8a3 3 0 0 1-1 1.4l-.3.3.1-.4c.4-1.3-.3-2.7-1.8-2.4-1.6.3-2.7 1.5-4 2.1.4-2 2.4-2.8 4.4-2.8zm20.6 0c2 .1 4 1 4.4 3-1.4-.7-2.5-2-4.1-2.2-1.1-.2-2.2.8-2 1.9l.4 1c-1-.4-2-2-1-3 .5-.6 1.4-.7 2.3-.6zm-41.8.4c.3 0 .5.2.7.3l-.8.3zm88.6.3c.2 0 .2.4-.1.5-.5.1-.4-.3 0-.4h.1zm17.2.5c1 0 2 .4 2.6 1-1.4-.7-2.8-1-4.3-.8zm-102.2.4 1 .1c2 .3 3.5 1.2 4.1 2.8-4-3.4-9.8-2.5-11.5 3.2-.5 2.4-.1 5.2-.1 7.6v23.8c0 1.7-.3 3.7.1 5.4 1 4.3 6.7 8 11.8 3.1v.3c0 1-2.3 2-3 2.4-2.6.9-5.6.2-7.6-1.7-2.7-2.6-2-6.6-2-10.2V124c0-3.4-.8-7.5.9-10.4a7.1 7.1 0 0 1 6-3.5c0 .4.3 0 .3 0zm90.8.8c1.2-.1 2.3 1.5.6 1.7-1.5.2-2.3-1.4-.6-1.7zm10.7.2c3.3-.2 5.7 2.7 4.7 5-3-.6-6-.3-9-.3-.3-2.7 1.9-4.5 4.3-4.7zm-19.4 0-.3.1c-1.7.5-1.3 3 .5 2.4 1.4-.4 1.3-2.6-.2-2.4zm-107.4.3c1.5 0 3 0 4.4.4 2 1 2.3 3.8.7 5.1-1.2 1-2.7.8-4.2.8-17.6 0-35.2.4-52.8-.2-1.8-.9-2.5-3.4-1-5a5.6 5.6 0 0 1 3.7-1.1h44.6zm107.4.7c.4 0 .2.4 0 .5h-.2c-.4 0-.2-.2 0-.4h.2zm-81.6 0c4.3.3 7.2 6.6 2.5 9.4-5.4 3.3-11.4-4.8-5.7-8.4a6 6 0 0 1 3.2-1zm-11 0c2.3.2 2.8 4.4.1 4.9-3.4.6-3.2-5-.1-4.8zm3 .6h.1v.1zm96.8.8c1 .4 1.9.5 3 .2l.1 1.4c-.8-.2-1.4-1-2.6-1-.5 0-.8 0-1.1.2zm-67.7.5c5.6 0 11.1 0 16.7.4a17 17 0 0 1 11 7.2c3.2 4.5 3 9.6 3 14.9 0 3.8.4 7.9-.4 11.6a17.2 17.2 0 0 1-14.2 13.2c-3 .4-18 .2-18.7.1a17 17 0 0 1-11.9-6.3c-3.8-4.9-3.7-10.2-3.7-16.2 0-3.7-.5-7.6.3-11.2 1.7-7.7 8-12.6 15.7-13.5zm58.2.3c-1.6 0-2.2 2.4-.4 2.4 1.6.1 2.2-2.4.4-2.4zm-48.4.3h-11a18 18 0 0 0-10.7 4.3c-5.8 5-5.8 11.7-5.8 18.6 0 3.2-.3 6.5.3 9.7a17 17 0 0 0 5.8 9.8c7.7 5.5 18 4 26.9 3.8 7.2-1 13-6.3 14.6-13.4.8-3.4.4-7.2.4-10.7 0-5.2 0-10-3-14.6a17 17 0 0 0-10.6-7.1c-2.3-.5-4.6-.4-6.9-.4zm-31.9.5c-3 .5-2 4.5.9 4 3-.6 1.7-4.5-.9-4zm80.2.1c.4 0 .2.4 0 .5h-.3c-.3 0 0-.3.1-.4h.2zm-55 .3h.1v.5h-.3zm85 .2zm-82.3.2c3-.3 4.3 4.2.7 4.6-2.4.3-4.6-2.6-2-4.1.3-.3.8-.4 1.3-.5zm-5.6.2c2 0 2 .8 2 1.4a3 3 0 0 1-.4.9c-.9.7-3.4.3-3.8-.8-.2-.5.3-1 .8-1.2zm15 .1c5.6.4 11 5 12.7 10.2 1 3 2 5.4-1.5 6.3-2.4 1-5 1.8-7.7 2.3a65.6 65.6 0 0 1-25.6-.1c-4-.8-8.4-2.6-9.2-3.2v-.4c-.4-2 1.3-10.5 9.3-14 1.2-.5 2.4-.7 3.7-1l-.4 1c-.2 2 2.7 2.9 4.2 2.8.5 0 1.2-.4 1.5-.3.5.2 1 1.2 1.8 1.6 2.2 1.3 4.5.2 5.8-1.7 2 .7 6.4.6 5.8-2.5 0-.4-.2-.7-.5-1zm-3.3 0c.5 0 1 .1 1.4.3.5.3 1 .7.9 1.2-.4 1.1-3 1.5-4 .7 0-.1-1.3-2.1 1.7-2.1zm58 .3 2.4.1c1.1.1 2.1.3 3.1.8a9 9 0 0 1 5 7v11.5c0 4.7.8 9.8-3 13.1a9.4 9.4 0 0 1-4.9 2.1c-1.5.2-3.4.2-5 0-1 0-2-.3-2.8-.8-6.8-3.2-5.1-11.8-5.1-18.2 0-4.8-.8-10 3-13.4.7-.5 1.3-1 2-1.3 1-.4 2-.7 3-.8l2.4-.1zm-91.5 0c.6 0 1 .9.2 1.1-.9.2-1.5-.9-.5-1zm102.1.5c1.2 0 2.4.2 3.5.4l-.1.4c-.3 1 .4 1.3 1 1.3h1.3c.4.3.5 1 .5 1.5h-4.4c-.5 0-1.4.2-1.7 0-.4-.3-.7-1-1-1.5a9.4 9.4 0 0 0-2.1-2h3zm-10.4.3a14.8 14.8 0 0 0-4.9.9c-5.6 2.6-4.6 9-4.6 14v7c0 4.2.2 8.5 4.8 10.6.8.4 1.7.6 2.6.7 1.4.2 2.9.1 4.2 0 1-.1 1.8-.4 2.7-.8 5.5-2.4 4.6-8.6 4.6-13.3v-7.6c0-4.2-.1-8.6-4.7-10.7-.9-.4-1.8-.5-2.7-.7zm-100.4.4v1.6l-1-1.1zm91.7.5a10 10 0 0 0-2.5 3.8c-.5-.7-1-1.2-1.7-1.6l1.8-1zm-18.8.2c.7 0 .8 1.8 0 1.8-.7 0-.7-1.7 0-1.8zm2.7.1c.7 0 .7 1.7 0 1.7-.8 0-.7-1.6 0-1.7zm106.8 0h-.4c-1.1.4-.6 2.1.6 1.9 1-.2.7-1.7-.2-1.9zm-82 .2h1.8c2.8.4 5.2 2.2 6 4.9.4 1.5.2 3.2.2 4.8v8.5c0 4.4.8 9.4-3.8 11.6a13 13 0 0 1-6.3.6 6.8 6.8 0 0 1-5.8-5c-.4-1.5-.2-3-.2-4.6v-7.9c0-4.5-1-10 3.9-12.2.7-.3 1.5-.5 2.3-.6zm-147.6.1c2.1 0 3.9 0 4.7.2a16.4 16.4 0 0 0-6.5 5c-.7 1.1-1 2.5-1.7 3.4-.2.3-1.4.3-2 .6-1.3.7-2 2.3-1.6 3.7l.5 1h-.7c-.5.1-.7.5-1 .5h-1.1l-1.1.2-1-.2c-.4 0-.7.2-1 .1-.3 0-.5-.3-.8-.4-.9-.5-1.2-.2-1.7-1-.2-.3 0-.6 0-1-.1-.6-.5-.9-.6-1.2l.2-1c0-1.2-.7-2-.1-2.9.5-.8 1.3-1.5 2.3-1.3.2 0 .3.4.6.6.5.6 1.1 1.2 1.9 1.4 3.2 1 6.7-1.8 5.8-5.2-.3-1-1-1.6-1.5-2.3zm-15 .1c1 0 1.4 1.7.2 2-1.6.3-1.7-2-.2-2zm2.7 0h.4a4 4 0 0 1-.8 1c-.1-.4-.2-.8-.1-1v.1h.5zm38.8 0c1.7 0 2.8 0 3.4.2a22.9 22.9 0 0 0-4 9.6c-.3 2-.5 3.8-1 5.7-.7-1.2-.2-3.5-1.3-6.8a15 15 0 0 0-7.9-8.6h10.8zm18 .1c2.3.1 2.8 4.3.2 4.8-3.4.6-3.3-5-.2-4.8zm80.7.2c.8 0 .9 1.8.1 1.8-.7 0-.8-1.7 0-1.8zm-115.4 0 1 .2c.8.6.8 3.2.1 4-.1.2-.5 0-1 0-1 0-2 .4-3 .4-1.2 0-2.3-2.7-1.6-3.6.2-.3 2.8-1 4.5-1zm108 0c.3 0 .7 1.6 0 1.8-.8.1-.7-1.6-.1-1.7zm9.1 0 1.3 1.3c-.3-.3-.7-.4-1-.3zm-146 .1c1.2 0 1.8 1.7.4 2-1.5.4-1.9-2-.3-2zm51.6 0c-.4 1.3-1.6 2.6-1.3 4.3.3 1.6 2.3 1.6 2.3 2.3 0 .1-.7 3.7-1 6.7-.6 6 .2 14.5 1.6 17.1.6 1.2 2 2.8 1.9 4.2-.6-.4-1.4-1.3-3.4-1.9-5.2-1.4-12.2.5-14.6 5.8-1 2.2-.2 4-.2 4.7-6-1.8-12-3-18.4-2.7l-.5-1.4h-.6v1.3c-3.5.6-4 .5-5.8.8l-1-2.2-.2 1v1.4a8 8 0 0 1-3.1 1c-.4 0-1.5-1-4.6-.4-1 .3-2 1-2.9 1.3l-.4.1c.6-1.7 2.5-2.3 4.3-3 5.3-2.3 11.2-2.7 16.9-3.2l4.8-.5c.2 0 1.3 0 1.5-.5 0-.3 0-.5-.2-.6l-.5-.2c-1.5-.1-7.6.8-8.2.7-.2 0-.2-.2-.3-.5-.1-.4-.2-.8-.4-1l-.5-.5v.6c0 .4.2 1.1.1 1.4-1.9.5-4.2.4-6.3.8v-1.7h-.4c-1 .4-.2 1.6-.5 2l-4.6 1.2c-.8 0-1.7-.3-2.7-.3-1.2.1-2.3.6-3.3 1.1-.4.2-1 .5-1.2.4 0-.8.4-1.2 1-1.6a67.5 67.5 0 0 1 28.1-6c.4 0 2 .2 2.2-.5.3-.6-.4-.9-.8-.9-3.7.3-7.4.4-11 .8l-.1-.3v-1.3l-.4.1c-.3.1-.4.2-.5.5-.2.3 0 .8 0 1v.2a61.8 61.8 0 0 1-6.2 1c-.4-.3.1-1.3-.7-1.7l-.4-.2v.4c0 .6.2 1.2 0 1.5 0 0-.1.2-.4.3-1 .4-3.5 1-3.6 1-2.2-.4-4.1-1-6.3.3l-.4.1c0-.5.5-.8 1-1.1 7.2-4 15.6-4.9 23.7-5.8.3 0 1.5 0 1.7-.6.3-.6-.4-.8-.7-.8-1.4 0-4.9.8-7.2.7-.2-.1-.1-.6-.1-1v-.2l-.9-.2v1.7h-.1l-6.2 1.1c-.4-.2 0-1.3-.8-1.7l-.3-.2v.4c-.1.6.2 1.5 0 1.8-.5.3-2.7.9-3.1.8-1.1 0-2.1-.7-3.4-.6-1.7.2-3 1.2-3.4 1.1l.2-.8c1.8-3 21.2-6.5 29.9-6.5 4.6.2 10 1 14-2.2 5-5.5 3.3-16.7 7-19.5a4 4 0 0 1 2-.7zm2.1.1c1 .8-.5 4.1-1 4.8-1.8-.3-.9-2.7-.2-3.8.3-.5.7-1 1.2-1zm-21.7.2h.5a6 6 0 0 1 2 .8c3.1 2 6.1 4.4 7 7.6.3 1.3.6 2.5.6 3.7l-.1 1-3.6-.3c-.4-.5.3-3-2.5-6-2-2-3.8-2.2-4-2.6-.2-.1 0-.5.2-1 .2-.7.2-1.8 0-2.6v-.6zm-21.1.9c.3 0 1.1.8.8 1-.4.1-.9-.4-1-.8 0-.1 0-.2.2-.2zm-2 0c.3 0 .2.8-.5 1-.4 0-.3-.1-.2-.2 0-.2.2-.5.5-.6l.3-.2zm138.5 0 1 .5-.4.4c-.1-.3-.3-.6-.6-.8zm4.5.6c.8 0 1.6.4 2.3 1.2 1 1.3.6 2.5.6 4.3 0 .5.2 1.3 0 1.7-.3.6-2.6.7-3 .4-.6-.4-.8-1.2-1-2-.2-1-.7-2-1-3l-.2-.3-.2.1c-.9.3-.9 1-1 1.6-.1 1.4-.3 2.9.2 4.2.5 1.6 2.3 3 4 3.1.8 0 1.6-.3 2.2-.6v.7c-.2.3-.7.4-1.2.5-1.4.4-3.2-.3-4.3-1.3-.5-.4-1-1.8-2-1.7h-.3c-.3-2.3 0-4.8 1.3-6.7.8-1.4 2.2-2.3 3.6-2.2zm-129.3 0c0 .8 0 1.6.4 2.3.2.4 1 1 .9 1.2 0 .2-.5.4-.7.6a8.9 8.9 0 0 0-3.6 5c-.2.3-.2 1.1-.4 1.2h-.3c-.1-.8 0-1.5-.5-2.3-.4-.5-1.4-1-1.5-1.4 0-.5.5-1.4.9-2 .9-1.5 2-3 3.6-4zm47.4 0c.6.8 1.2 1.2 1.6 1.5h-1.7zm-57.3 0v.2zm-15.8 0c1.1 0 1.5 2 .1 2.2-1.5.3-1.5-2.2-.1-2.1zm146 .2c0 .2.2.5.4.6l-.7-.5zm-133 0 .2.5c.2.3.5.5 1 .7l-.7.2c-.2.2-.4.4-.4.7l-.5-.7c-.7-.5-1.5-.1-1.8-.3h.7c.8 0 1.2-.5 1.5-1zm136.4.2c.8 0 .8 1.7 0 1.8-.7 0-.7-1.8 0-1.8zm-11.6 0c.6 0 .7 1.6.1 1.8-.7.2-.7-1.6-.1-1.7zm-132.5 0 1.3.7c0 .1 0 .4-.2.5-.2.2-.8 0-1.3.3-.9.5-.7 1.2-1 1.8-.2.3-.6.5-.7 1-.3.6.2 1 .1 1.4 0 .6-.5 1-.4 1.8 0 .5.5.8.5 1 0 .5-.4 1-.1 1.7.2.6.7.8.9 1 .1.4 0 .9.3 1.4.5.7 1.2.5 1.7.7.4.2.6.8 1.2 1 .6.2 1-.1 1.4 0 .4 0 .8.5 1.4.6.6 0 1-.3 1.4-.3l.8.2c1 .2 1.5-.7 2.2-.5.3 0 .4 0 .4.2.1.2 0 1.6-.1 2.1-.2.2-1.2-.1-1.7.1-.6.3-.9.8-1.3 1-.3.1-1.2-.5-1.8-.4-.8 0-1.1.7-1.6.8-.3 0-.7-.5-1.3-.5-.7-.1-1.3.3-1.8.2-.3 0-.6-.7-1-1-.7-.3-1.7 0-2-.2-.3-.8-.8-1.4-1.5-2l.3-.5c.7-2.2-1-3.3-1-3.5-.1-.3.3-.7.5-1.1.4-1.1 0-2.4-1-3a18.2 18.2 0 0 0 .9-1.8l-.2-1.6c1.3-.4 1.7-2 1.7-2 .2-.2 1 .1 1.5 0 .7-.2 1.3-1 1.5-1zm175.4.1h5.7c-.2 2.7-2.5 3.5-5 3.6zm-34.1.5 1 .3.1.7-.6-.6zm-3 0c1.2 0 2.4.6 3 1.8.2.4-.2 1-.2 1.6 0 .6.2 1 .3 1.6-.4.3-.6.7-.8 1.2-1 .2-2 .5-2.6-.2-.4-.4-.5-1-.7-1.7-.1-.4-.8-2.7-1.7-2.3-.7.4-.8 3-.7 3.9.4 2.6 3.2 4 5.6 3.5-.2.8-.3 1.5-.2 2.4-2.6 1.6-5.2.3-6.3-2.5-1-2.4-.7-5.7 1-7.7.7-1 2-1.5 3.3-1.5zm-127.5 0v.2-.1zm123.6.2h.1zm89 .4c-.8 0-1.6.2-2.2.3l-5.5 1.1h-.2v.7l4.7-.4c-.1 1.7 1.8 3.4 3.5 3.5 1 0 2-.6 3-.5.6 0 1.1.4 1.8.6l.6.1-.3-.5a5.6 5.6 0 0 0-1.7-2c-.8-.8-1.3-2.1-2.4-2.7-.4-.2-.9-.2-1.4-.2zm-220.5 0c.4 0 .5.5 0 .5s-.5-.5 0-.5zm73.1.5-.9 2.4-1.6-1.9 2.4-.5zm-66.5 0c.4.1-.3 1-.7 1-.2.1-.2 0-.2 0 0-.4.2-.9.5-1zm-3.2 0c.6.1.7 1.1.5 1.1l-.8-.5c-.2-.3-.2-.5 0-.5h.3zm57.8.4v2.4c-.5-.7-1-1-1.4-1.2a5 5 0 0 0 1.4-1.2zm159.4.2c1 .1 2.1 1.5 2.7 2.5-.9.1-1.7.4-2.4.4-1.3 0-2.4-1.4-2.4-2.5.7-.2 1.4-.4 2.1-.4zm-153.3.2c1 0 1.7.1 2.4.6 2.5 1.8 2.4 7-.3 8.6-1.1.7-3 .4-4.6.4v-9.6zm-69.6 0c.3.1.6.4.1.6-.5.1-.6-.6 0-.5zm4.7.4c.4.5 1 .9 1.6 1-.7 0-1.2-.5-1.6-1zm126.3.1c.6 0 .6 1.9 0 2-.6 0-.6-1.9 0-2zm11.3.2c.5 0 .6 1.8 0 1.8-.7.1-.6-1.7 0-1.8zm-116.4 0a9.1 9.1 0 0 0-3.3.7c1-.4 2.2-.6 3.3-.7zm-33.3 0c1.1.1 1.4 2 .2 2.2-1.6.3-1.5-2.2-.2-2.2zm247 .4h-.4c-1.3.3-1 2.3.4 1.9 1-.3 1-1.8 0-2zm-233.3.3h.4a3 3 0 0 1-.4 0zm16 .2zm37.8.1c2.7-.3 4.6 5.3.5 6.3-3.6.5-4.1-5.9-.5-6.3zm-30 0 .5.3.5.5-1-.7zm-31 .3c.2 0 .5.4 0 .5-.4.1-.6-.5 0-.5zm26.5 0c6.3-.2 8.1 6 7.2 7.7-.9 1.2-2 2.2-2.4 3.8-1 1.3-3.1 1.1-4.8 1.3 0-.4.4-.9.2-1.6-.4-1.5-2.3-2.7-3.4-1-.6 1 .5 1.5.4 2h-.1l-.7-.5c-.3-.3-.1-.8-.3-1.4-.2-1-.7-1.9-1.3-2.7-.4-.5-1.3-.9-1.3-1.4-.3-3.2 3.1-6 6.5-6.1zm121 .2c.5 1.5.8 3.5 2.6 3.8 1 .2 2-.2 2.8-.4v1c-.7 1-3 .6-3.8 0-1.3-.8-1.8-2.8-1.6-4.4zm12 .2c-.2 0-.4 0-.6.2-1.3.4-1 1.9-.7 2.8.6 1.4 2.7 3.4 4.5 2.8 1.2-.4 1.1-1.9.7-2.8-.5-1.3-2.1-3-3.8-3zm-23.1 0c.2.7.4 1.5.8 2.1.9 1.3 2.4 1.3 3.6 1l.3.7c-2.6 1-5.2-1.1-4.7-3.7zm33.7.1a2 2 0 0 0-.5 0 5 5 0 0 0-3.7 3c-.6 1.5 0 3 1.8 2.8 1.6-.2 3-1.7 3.6-3.2.4-1 0-2.4-1.2-2.6zm-148.6.2a7.6 7.6 0 0 0-2.8 4.7v.2l.1-1a7.3 7.3 0 0 1 2.2-3.6zm5.5 0h-.6c-2 .4-1.3 3.2.5 2.8 1.9-.3 1.7-2.5.1-2.8zm149.5 0c2.7.1 5.4.6 5.7 3.6h-5.7zm-16.9 1c1 0 2.3 1.3 2.7 2 .2.5.4 1.2 0 1.4-1 .4-2.5-1.2-3-2-.2-.5-.4-1.2 0-1.4zm10.2 0c.7 0 .5.8.3 1.3-.5 1-1.7 2.2-2.8 2.2-.7 0-.5-.9-.3-1.3.5-1 1.6-2.1 2.8-2.2zm61.8.2h-.5c-1.5.4-1 2.5.5 2.1 1.2-.3 1.1-2 0-2.1zm-100.3.1c.7 0 .7 1.9 0 1.9-.6 0-.7-1.8 0-1.9zm-131.4 0c.7 0 .7 1.1 0 1-.8 0-.7-1 0-1zm26.8 0v.1s-.1 0 0 0zm115.8.1c.7 0 .7 1.7 0 1.8-.5 0-.5-1.7 0-1.8zm-149 .5c1.4 0 1.7 2.7.2 3-2 .4-2-3-.2-3zm20 .2c1.3 0 2.8 1.6 2.2 2.5l-3 1.2v-.4c.1-.7.3-1.5.8-2h.1l-.2-.7-.2-.2-.2.2c-1 .8-1 1.8-1.2 2.7-1.2-1.3.2-3.3 1.7-3.3zm217.9 0c.2 0 0 .3-.1.3-.2 0 0-.2 0-.3zm-86.3 1.4.1.2c1.5 3.3 4.6 4.3 7.7 3.4-.4 1.6-2.5 2.7-4 2.3a5.4 5.4 0 0 1-3.1-3.2 9 9 0 0 1-.7-2.7zm-144.8.4c.4 0 .9.8.2 1-.7.2-1.2-.8-.5-1zm132.4 0 .1.8-.3-.6zm43.8.7h5.7c-.3 3-3 3.5-5.7 3.5zm-11.8.1h-.5c-2.5.5-1.6 4 .8 3.6 2.3-.4 1.7-3.5-.3-3.6zm-33.5 0c.9 0 .9 2.7 0 2.8-.9 0-.9-2.6 0-2.7zm11.2.2c1-.1 1 2.6 0 2.7-.8 0-.8-2.6 0-2.7zm-78 .1v2.6a4.7 4.7 0 0 0-1.6-1.3 6 6 0 0 0 1.6-1.3zm68.7.3a8.2 8.2 0 0 0 3 3.4 7.3 7.3 0 0 0-3.2 4.3l-.4-.6c.3-.5 1-1.6.5-3.1l-.5-1c0-.3.4-.7.5-1.1a3 3 0 0 0 0-1.9zm31.5.6c.7 0 1.1 1 .2 1.3-.9.2-1.4-1-.3-1.3zm-148 .1a5 5 0 0 1 3.9 2c1.2 1.6 1.4 4.7-.5 6-.6.4-5.8 1-6 .9-1.6-.5-1.6-2-1-3.2.5-.9 1.4-1.5 2.3-1.9.5-.2 1.4-.2 1.9-.9l.1-.3-.3-.1c-1.4-.4-3.4.3-4.5 1l-1 1c0-1.3.8-2.7 1.8-3.5 1-.7 2.1-1 3.3-1zm127.9.2a8.4 8.4 0 0 0 2.8 4 7.8 7.8 0 0 0-3 3.6l-.3-1.4c0-.7.6-1.4.5-2.4-.1-.6-.7-1.2-.7-1.6 0-.5.6-1.2.7-2zm-143.4 0c.3 0 .6.4.1.5-.4.1-.6-.4-.1-.4zm-7.3.2c1.5-.2 2.2 2.6.4 3-1.8.2-2-2.7-.4-3zm80.7.3v2.5c-.5-.5-1.1-.9-1.8-1.2.7-.3 1.2-.8 1.8-1.3zm-36.5.3c1.9 0 4 1.2 2.8 3.6a5.8 5.8 0 0 1-4.2 2.8c-2.3.3-4.9-1.1-3.6-3.7a5.7 5.7 0 0 1 5-2.7zm85.6 0-.1 1.6c-.3.4-1.5.8-2 1a55.7 55.7 0 0 1-42.9-1c-.3-.3-.2-1-.2-1.5 1.8.6 3.5 1.9 9.8 3.2a60.8 60.8 0 0 0 35.4-3.3zm-120.4.3c.3 0 .6.4.1.5-.5.1-.7-.5 0-.5zm7.1 0c.2 0 .6.4.2.5l-.3-.1zm50.8 0c2.6-.3 4.5 5.4.4 6.4-3.6.4-4-6-.4-6.3zm106.1.2h-.7c-1.2.5-1.1 2-.8 2.8.7 1.4 2.7 3.7 4.6 3 1.3-.6 1-2 .7-2.9-.6-1.2-2.1-3-3.8-3zm-5.2.2h-.6a5 5 0 0 0-3.5 3.3c-.5 1.3.2 2.8 1.9 2.5a5 5 0 0 0 3.5-3.1c.5-1.3 0-2.7-1.3-2.7zm-154.2 0 .3.2s.2.1-.2.4c-.3 0-.6-.5-.1-.5zm-2.3.1c.3 0 .7.4.2.5-.5.1-.8-.5-.2-.5zm200.6 0c.9 1.6 2.6 2.4 4.2 3.1.6.3 1.9.6 2.1 1 .3.4-.4 1.7-.8 2-1.4 1.4-3.8 2-5.6 3v-7.1zm-65.1.8zm26.3 0c1 0 2.2 1.4 2.6 2.2.2.4.4 1.1 0 1.3-1 .4-2.6-1.2-3-2-.2-.5-.4-1.2 0-1.4h.4zm-5.4.3c.5 0 .6.6.3 1.2-.5 1-1.5 2-2.6 2.2-.8.2-.8-.6-.5-1.2.4-1 1.4-2 2.5-2.2zm-91.5.1c.9 0 1.7.2 2.4.6 2.4 1.6 2.4 6.8 0 8.3-1.3.7-3.2.4-4.8.4v-9.2zm60.8 0c.9 0 .9 2.6 0 2.7-.9.1-1-2.6 0-2.7zm11.2.1c1 0 1 2.7 0 2.7s-1-2.7 0-2.7zm10.5.3v1.6l-1-.8zm-14.3 0c.6 0 1.2.2 1.8.6 0 .6 0 1.2.3 1.9.1.3.4.5.4.8l-.4 1.2c-.1.6.1 1.1.3 1.6-1 .3-2.2.6-2.7-.2-.6-.8-.8-2-1.3-3 0-.2-.4-1.2-1.1-.9-.5.3-.5 1.2-.6 1.5-.1 1.2-.3 2.8.5 4 1.6 2.2 3.7 2 5.8 1.7l.6.7c-1 2.7-5 3-6.8 1-1.7-1.9-2-5-1.1-7.5.8-2 2.4-3.4 4.3-3.3zm-101 .1h-.5c-2 .5-1.2 3.2.7 2.8 1.8-.4 1.4-2.5-.1-2.8zm140.7 0c2 0 4 .5 4.9 2.5l.2 1h-7v-3.4h1.9zm-153.5.3c.7.3 1 1 .7 1.7 0 .2-.6.9-.4 1.4l-.3-.6c0-.3.2-.6.1-1l-.5-1c0-.2 0-.4.4-.5zm98.7.4c.1 4 .7 8.6-1 12.3-.6.5-2.9-.3-3.6-.7a8.2 8.2 0 0 1-4.2-8.5v-.1c1-.2 2.6-.5 3-.8zm-45 0c3.3 1.9 6.6 2.6 8.4 3l1 .1c0 3.3-.8 6.5-3.7 8.2-2.5 1.4-4 1-4.6 1a26 26 0 0 1-1-12.3zm137.7.1v.2h.2c4.1 1.1 8.3 2.1 12.5 2.5l.8.1c.2.2.2.9.2 1.3l.3 3.6c0 5-.4 9.9-2 14.6-.4 1.4-1 2.7-1.8 3.8-.3.5-.7 1-1.1 1-1.2.4-3.2-.3-4.3-.7-4-1.6-7.3-4.7-10.4-7.5-1-1-2.1-1.8-3-2.9-.5-.4-.8-1-.5-1.4.4-.8 1.4-.9 2.3-.9 1.7 0 3.8.4 5.6 0l.3-.2-.1-.3c-.4-.8-1.3-1-1.9-1.3-1.5-1-3-2.1-4.6-2.9-.6-.2-2-.5-2.2-1l.4-.4c.6-.5 1.5-.7 2.2-1 1.4-.7 3.3-1.4 4.1-2.9.4-.8.3-2.1.8-2.6.2-.2.8-.3 1.2-.5.4-.1.7-.4 1-.6zm-203.2 0c-.5.6-1 1.2-1.3 2l.1-.6c.2-.5.7-1 1.2-1.4zm-17.8.4c1.4 0 1.5 2 0 2-1.3 0-1.3-2 0-2zm42.2.2h.1c-.1 0-.3 0 0 0zm219.6 0c0 5.2-1.3 10.7-2.7 15.7-.8 2.7-1.9 5.3-4 7.2-2.2 1.9-5.4 2.4-8.3 3l1.5-2.5c1.8-4.1 2.6-9 2.7-13.5 0-3-.4-5.7-.4-8.6zm-107.5 0c1.2 0 2.4.6 3.2 1.8.3.5.2 1 .2 1.7l.2 3c-1.1.4-2.8 1-3.5.3-.7-.8-.9-2.3-1.3-3.4-.1-.2-.4-1.4-1.2-1.1-.6.2-.6 1.6-.6 1.9-.1 1.7-.3 3.3 1 4.8 2.2 2.2 4.2 1.2 6.3.5-.3.7-1 1-1.9 1.3-2.4.6-4-.6-5.7-2.4-.4-.5-1.3-.6-1.3-1a8 8 0 0 1 2-6.1c.7-.9 1.6-1.3 2.6-1.3zm-127 1.6.8.4h-.3zm221.5 0h.3c.1 1.4.4 2.8.4 4.2.2 5-.2 10.3-1.7 15-.7 2.1-1.6 4.7-3.5 5.6.7-1.3 1.6-2.4 2.2-3.9a41.8 41.8 0 0 0 2.3-15.2l-.2-4.2c0-.5-.3-1.2-.2-1.4h.4zm-213 .1a6 6 0 0 1-2.7.9c.6-.1 1.2-.2 2.5-.8h.1zm211.2.1c.8 6 .6 12.5-1.1 18.3-.5 1.6-1.1 3.2-2 4.6-.3.5-1.1 1.2-1.4 2l-8.5.2c.2-.5.6-1 1-1.5a45.7 45.7 0 0 0 3-23c2.9 0 6.2 0 9-.6zm-233.1 0c1 0 1.6 1.7.4 2-1.6.4-1.9-2-.4-2zm-10.7 0c1 .3 1.4 1.8.1 2-1.3.3-1.8-1.6-.5-2zm232.6.6h.8c.7 6.2.6 13-1.4 19-.6 1.8-1.5 4.8-3.3 5.3.8-1.6 1.9-3.1 2.5-5 2-6.3 2-12.9 1.4-19.3zm-99.6 0c.5 0 .6 1.7 0 1.9-.3 0-.5-.2-.5-.7-.1-.5 0-1 .4-1.1h.1zm-106 0c.3.2.5.2.8.2-.2.1-.6.2-.8 0v-.1zm38.9.1v2.2a7 7 0 0 1-1.1-1zm78.2 0c.7 0 .7 1.7 0 1.8-.8 0-.7-1.6 0-1.7zm-137 .1c1.1 0 1.6 1.8.3 2-1.7.3-1.9-2-.3-2zm26.7.1.3.2h-1l.9-.2zm-30.2.1c1.1 0 1.2 1.9-.1 2-1.5.2-1.4-2.1 0-2zm134.2 0c.3.7.5 1.6 1 2.3 1 1.4 2.7 1 4 .7-.4 1.2-1.3 1.5-2.8 1a3.5 3.5 0 0 1-2.2-4zm-23.6 0c-.1 5.3 3.2 10.6 9 11-.8 1.3-2.7.6-4.1 0-3-1.3-5.2-4-5.9-7.2-.2-.8-.7-3-.2-3.5.2-.2.7-.2 1.2-.3zm-90.7.1s.3 0 .5.2h-.7zm67.8 0c.5 0 1.1.1 1.3.3.5.6-.1 2.9-.3 3.7-.9 3.2-3.2 5.9-6.3 7-1.4.6-3.4 1.2-4.1-.2 5.2-.3 10.4-5.2 9.4-10.8zm86.6.3h7l-.2 1.1c-1 3-4.2 2.5-7 2.5zm-66.5 0c.2 6.1 3.8 12.1 10.3 12.7-3 4.9-9 6-14.4 6 0-1.3-.4-3.4-2-4-.7-.2-6-.4-7 .3-1 .9-1.3 2.5-1.3 3.8-4.2 0-8-.8-11.2-3.5-1-.7-2-1.6-2.5-2.6 6.7-.2 10.7-6.4 10.8-12.5 5.7.4 11.6.9 17.3-.1zm-98.4.5.6.7-1.4.2zm49.8.9c2.6-.4 3.6 4.1.6 4.5-3 .4-3.6-4.1-.6-4.5zm86.2.2c.4 1.3.7 2.8 2 3.4 1.3.5 2.7-.2 3.9-.4l.2.7c-1.1.4-2.1 1-3.2.9-2.1-.3-3.2-2.6-3-4.6zm-139.7 0 .9.2-1.6.3zm135.4 1c.5 0 .6 1.5 0 1.7-.3.1-.5-.2-.6-.6 0-.6.2-1 .5-1.1zm-11.2 0c.7-.1.7 1.7 0 1.8-.7 0-.8-1.8 0-1.8zm-57.5 1.6v.5h-.4zm103.3.8c2.4 0 4.7 1 4.9 3.5h-9a25 25 0 0 0 2.3-3.5zm-45 .6c.6 0 .7 1.6.1 1.8-.4.1-.5-.2-.6-.8 0-.5.3-1 .6-1zm73.2 0c1.8 1.2 4.1 1.7 5.7 3a9 9 0 0 0-4.5.5 3 3 0 0 0-1.2 1zm-136.6 0 .6.1c-1 .7-1.6 1.4-2 2v-2h1.4zm75 .1c.4 0 .8 1.6 0 1.7-.7.1-.6-1.6 0-1.7zm-80 .2v2l-1-1zm9.7.2.5.1c.2.2.1.7.2 1 1 4.7 2.8 6.4 2.8 7 0 1-2.4 1.8-3.3 2-5.1.6-8.3-6.3-3.7-9.3 1.2-.7 2.6-1 3.5-.8zm72.1 1c1.3 1.1 3 2 4.9 2l1.8-.5a4 4 0 0 1-4.1 2c-1.7-.3-3-2-2.6-3.5zm8.7.5a9 9 0 0 0 3.4 3h-5.4a14 14 0 0 0 2-3zm-93.6.1c2.6-.3 3.6 4.2.6 4.6-3 .3-3.6-4.2-.6-4.6zm73.5.2c.8 0 .8 1.8 0 1.8-.7 0-.7-1.7 0-1.8zm7.7 0c.3 0 .8 1.7 0 1.8-.8.1-.7-1.6-.1-1.7zm-142.2.6h.9a19 19 0 0 1-3.6 1.6c-.1 0-.4-.2-.4-.4.4-.5 1.7-1 3.1-1.2zm139.7.2c.6 0 .6 1.6 0 1.8-.3 0-.5-.3-.5-.8s.2-1 .5-1zm4.8 0 1.5 1.8h-2.7c.4-.4.6-1 .7-1.7zm-7.6 0s1.2 1 0 1.8c-.6 0-.5-1.6 0-1.7zm-64 .2h-.4c-2.8.7-1.7 4.7 1 4 2.6-.6 1.8-4-.5-4zm118.6.6c1.3 0 2.3 1.3 2.9 2.5 1 2.2 1 5-.2 7.3-.5 1-1.4 2-2.6 2.2-1.6.2-2.9-1.2-3.5-2.7-1.1-2.8-1-8.8 2.9-9.3zm-15.8 0h6.7c-.1 1.2-.8 2.7-2 3l-1-.4a13 13 0 0 0-2.5-1c-2-.6-4-.6-6-.6l1.6-1zm-160.6.5zm57.8.4c.8-.1 1.1 1 .2 1.1-.8.1-1.2-1-.2-1.1zm78.5 1c6.2.2 11.7.7 13 .5l6.9-.2c2.3 0 4.6.3 6.6 1.1 3.4 1.3 6.4 5 3.6 8.3-.4.6-1 1.1-1.7 1.6-6.4 4.2-11.4.3-14 .2-.7 0-1.6.6-2.1.8-.9.3-1.8.6-2.7.7-9.2 1.9-10.8-2.8-14.5-1-.8.4-1.8.7-2.7.9-3.7.6-8.3 0-11-2.7-.4-.5-.8-1-1-1.6-2.4-7.7 9.4-8.7 19.6-8.5zm-6.8.6c-3.5 0-9.5.6-11.2 4.5-.8 1.9.2 3.7 1.6 4.8 2.3 1.8 5.5 2.5 8.3 2.6h.3l.1-1.4h-.3c-2.4 0-5.3-.6-7.3-2-2.2-1.7-1.8-3.8.4-5.2 4-2.6 9.3-2 14-2-1.2 1.3.5 3 2 3.2 1 .2 2.2.2 3.3-.2.5-.1 1-.6 1.3-.6.3 0 .8.4 1.3.6 1 .3 2.2.3 3.3.1 1.5-.3 2.7-1.5 2-3 4.1 0 8.6-.4 12.5 1.4 1.5.7 3.6 2.2 3 4-.7 1.7-3 2.7-4.9 3.2-.7.2-2.6 0-2.5 1.5v.3h.3c2.4 0 5.3-1 7-2.7 1.7-1.5 2-3.7.6-5.5a7 7 0 0 0-1.6-1.4c-1-.5-1.9-1-3-1.3-3.8-1.2-8-.8-12-.8h-18.5zm-98.8 0c3.3 0 7.5 1.5 7.5 5.4 0 1.7-1.2 3.3-1.3 3.4-2.3 3-6.2 4-9.7 4-3.4-.1-7.3-2.4-6.5-6.2.9-4 6-6.5 10-6.5zm18.4.3.1.8-.6-.3zm-63.9 1h.4c-1 .6-2.2.9-3.3 1.5-.3 0-.6.1-.8 0-.2-.3-.1-.5.1-.6l.7-.3c1-.4 2-.7 3-.7zm153.7.2c.9.1 1.9.3 2.1.8.3.6-1.1.9-1.6 1-.9 0-2.6 0-3-.8-.3-.6 1.3-1 1.8-1zm5.8 0c1 0 2 0 2.7.7v.2c0 .4-1.2.7-1.6.8-.9 0-2.5 0-3-.7v-.3c.2-.4 1.4-.6 1.9-.7zm-97.6.5c2.6-.4 3.6 4.2.6 4.5-3 .4-3.6-4-.6-4.5zm-53.8 1.5zm92 .4a9 9 0 0 1 2.8.2c.7.4.8 1.8.8 2.7h-7.4c0-1 .2-2 .8-2.6zm-21 .9.2.3h-.5zm-13.3 0 .6.7h-.8zm-20.2.6c-1.6 0-3.4.8-3.7 2.3-.6 2.6 5.1 2.7 6.2 0 .6-1.6-1-2.4-2.5-2.3zm-45.8.8c-1 .5-2 1.3-3 1.6-.3.1-.7 0-.8 0-.2-.3.4-.5.8-.7 1-.6 2-.8 3-1zm79.2.2c2.7-.4 3.9 4 .7 4.5-3 .5-3.7-4-.7-4.5zm-33.5.3c.6 0 1 .1 1.2.3.1.2.2.4-.3.7-1.2 1-3 .7-3.2.2 0 0 0-.2.3-.4a3 3 0 0 1 2-.8zm20.4.1c2.6-.4 3.8 4 .6 4.6-3 .4-3.7-4-.6-4.6zm10.1.2-.4 1-.5-.6zm-6.6.3 1 .3-.6.8zm3.3.8c2.7-.3 3.6 4.2.4 4.6-3 .3-3.5-4.2-.4-4.6zm77 1.6-.3 1.2h.2c4.6 2 10.2 1.7 14.7 0l.2-.1v-.3c-.4-1.6-2.8-.2-3.5 0-2.6.5-5.2.6-7.7 0-1.1-.1-2.2-.6-3.3-.8zm-147.2 0h.4l-1 .4c-1 .4-2.4.8-3.6.8"/>
  <text font-family="Noto Serif Devanagari, serif" lang="und-Deva" x="144" y="254" font-size="70">рджреЗрд╡рдирд╛рдЧрд░реА</text>
  <text lang="und-Latn" x="432" y="250" letter-spacing="4" font-family="cmr10, serif" font-size="72">ABCD</text>
  <text lang="und-Arab" font-family="Noto Naskh Arabic, serif" font-size="60" writing-mode="rtl" x="144" y="332">╪з╪и╪м╪п┘З┘И╪▓╪н╪╖</text>
  <text lang="und-Brai" x="432" y="345" letter-spacing="2" font-size="70">таГтаЧтаЗ</text>
</svg>
